<?xml version="1.0" encoding="UTF-8"?>
<svg viewBox="0 0 1000 800" xmlns="http://www.w3.org/2000/svg">
  <!-- Background styles -->
  <defs>
    <linearGradient id="headerGrad" x1="0%" y1="0%" x2="0%" y2="100%">
      <stop offset="0%" style="stop-color:#f0f4f8;stop-opacity:1" />
      <stop offset="100%" style="stop-color:#d9e2ec;stop-opacity:1" />
    </linearGradient>
    
    <!-- Layer colors -->
    <linearGradient id="sourceGrad" x1="0%" y1="0%" x2="0%" y2="100%">
      <stop offset="0%" style="stop-color:#ebf5ff;stop-opacity:1" />
      <stop offset="100%" style="stop-color:#d6e8ff;stop-opacity:1" />
    </linearGradient>
    
    <linearGradient id="integrationGrad" x1="0%" y1="0%" x2="0%" y2="100%">
      <stop offset="0%" style="stop-color:#e6fffa;stop-opacity:1" />
      <stop offset="100%" style="stop-color:#c6f7e9;stop-opacity:1" />
    </linearGradient>
    
    <linearGradient id="coreGrad" x1="0%" y1="0%" x2="0%" y2="100%">
      <stop offset="0%" style="stop-color:#fff5f5;stop-opacity:1" />
      <stop offset="100%" style="stop-color:#fed7e2;stop-opacity:1" />
    </linearGradient>
    
    <linearGradient id="uiGrad" x1="0%" y1="0%" x2="0%" y2="100%">
      <stop offset="0%" style="stop-color:#f0fff4;stop-opacity:1" />
      <stop offset="100%" style="stop-color:#dcfce7;stop-opacity:1" />
    </linearGradient>
    
    <linearGradient id="externalGrad" x1="0%" y1="0%" x2="0%" y2="100%">
      <stop offset="0%" style="stop-color:#f9f6fe;stop-opacity:1" />
      <stop offset="100%" style="stop-color:#e9d8fd;stop-opacity:1" />
    </linearGradient>
    
    <!-- Component styles -->
    <style>
      .header-text {
        font-family: Arial, sans-serif;
        font-size: 24px;
        font-weight: bold;
        fill: #334e68;
      }
      
      .layer-title {
        font-family: Arial, sans-serif;
        font-size: 16px;
        font-weight: bold;
        fill: #486581;
      }
      
      .component-title {
        font-family: Arial, sans-serif;
        font-size: 14px;
        font-weight: bold;
        fill: #334e68;
      }
      
      .component-subtitle {
        font-family: Arial, sans-serif;
        font-size: 12px;
        fill: #627d98;
      }
      
      .connection {
        stroke: #829ab1;
        stroke-width: 2;
        stroke-dasharray: 5,5;
        marker-end: url(#arrowhead);
      }
      
      .connection-solid {
        stroke: #627d98;
        stroke-width: 2;
        marker-end: url(#arrowhead);
      }
      
      .connection-bidirectional {
        stroke: #486581;
        stroke-width: 2;
        marker-end: url(#arrowhead);
        marker-start: url(#arrowhead);
      }
      
      .component-box {
        stroke: #9fb3c8;
        stroke-width: 2;
        rx: 8;
        ry: 8;
      }
      
      .layer-box {
        stroke: #829ab1;
        stroke-width: 2;
        rx: 12;
        ry: 12;
        fill-opacity: 0.8;
      }
    </style>
    
    <!-- Arrow marker definition -->
    <marker id="arrowhead" markerWidth="10" markerHeight="7" refX="9" refY="3.5" orient="auto">
      <polygon points="0 0, 10 3.5, 0 7" fill="#627d98" />
    </marker>
  </defs>

  <!-- Title and header -->
  <rect x="0" y="0" width="1000" height="60" fill="url(#headerGrad)" />
  <text x="500" y="38" text-anchor="middle" class="header-text">Failed Order Tracking System - Complete Architecture</text>

  <!-- External Systems Layer -->
  <rect x="40" y="80" width="920" height="120" class="layer-box" fill="url(#sourceGrad)" />
  <text x="60" y="105" class="layer-title">SOURCE SYSTEMS LAYER</text>
  
  <rect x="80" y="120" width="120" height="60" class="component-box" fill="white" />
  <text x="140" y="150" text-anchor="middle" class="component-title">Order Management</text>
  <text x="140" y="170" text-anchor="middle" class="component-subtitle">System(s)</text>
  
  <rect x="240" y="120" width="120" height="60" class="component-box" fill="white" />
  <text x="300" y="150" text-anchor="middle" class="component-title">Payment</text>
  <text x="300" y="170" text-anchor="middle" class="component-subtitle">Processors</text>
  
  <rect x="400" y="120" width="120" height="60" class="component-box" fill="white" />
  <text x="460" y="150" text-anchor="middle" class="component-title">CRM</text>
  <text x="460" y="170" text-anchor="middle" class="component-subtitle">Systems</text>
  
  <rect x="560" y="120" width="120" height="60" class="component-box" fill="white" />
  <text x="620" y="150" text-anchor="middle" class="component-title">Logistics</text>
  <text x="620" y="170" text-anchor="middle" class="component-subtitle">Systems</text>
  
  <rect x="720" y="120" width="120" height="60" class="component-box" fill="white" />
  <text x="780" y="150" text-anchor="middle" class="component-title">Inventory</text>
  <text x="780" y="170" text-anchor="middle" class="component-subtitle">Management</text>

  <!-- Integration Layer -->
  <rect x="40" y="220" width="920" height="140" class="layer-box" fill="url(#integrationGrad)" />
  <text x="60" y="245" class="layer-title">INTEGRATION SERVICES LAYER</text>
  
  <rect x="100" y="260" width="240" height="80" class="component-box" fill="white" />
  <text x="220" y="290" text-anchor="middle" class="component-title">API Gateway</text>
  <text x="220" y="310" text-anchor="middle" class="component-subtitle">REST/GraphQL Endpoints</text>
  
  <rect x="380" y="260" width="240" height="80" class="component-box" fill="white" />
  <text x="500" y="290" text-anchor="middle" class="component-title">Event Stream Processing</text>
  <text x="500" y="310" text-anchor="middle" class="component-subtitle">Kafka/RabbitMQ</text>
  
  <rect x="660" y="260" width="240" height="80" class="component-box" fill="white" />
  <text x="780" y="290" text-anchor="middle" class="component-title">ETL Processes</text>
  <text x="780" y="310" text-anchor="middle" class="component-subtitle">Data Transformation</text>

  <!-- Core Layer -->
  <rect x="40" y="380" width="920" height="180" class="layer-box" fill="url(#coreGrad)" />
  <text x="60" y="405" class="layer-title">CORE SERVICES LAYER</text>
  
  <rect x="80" y="420" width="170" height="120" class="component-box" fill="white" />
  <text x="165" y="450" text-anchor="middle" class="component-title">Centralized Data Store</text>
  <text x="165" y="470" text-anchor="middle" class="component-subtitle">MongoDB/PostgreSQL</text>
  <text x="165" y="490" text-anchor="middle" class="component-subtitle">Universal Order Schema</text>
  <text x="165" y="510" text-anchor="middle" class="component-subtitle">Redis Cache</text>
  
  <rect x="280" y="420" width="170" height="120" class="component-box" fill="white" />
  <text x="365" y="450" text-anchor="middle" class="component-title">Workflow Engine</text>
  <text x="365" y="470" text-anchor="middle" class="component-subtitle">Rule-based Processing</text>
  <text x="365" y="490" text-anchor="middle" class="component-subtitle">Escalation Management</text>
  <text x="365" y="510" text-anchor="middle" class="component-subtitle">SLA Monitoring</text>
  
  <rect x="480" y="420" width="170" height="120" class="component-box" fill="white" />
  <text x="565" y="450" text-anchor="middle" class="component-title">AI Services</text>
  <text x="565" y="470" text-anchor="middle" class="component-subtitle">NLP Engine</text>
  <text x="565" y="490" text-anchor="middle" class="component-subtitle">ML Model Training</text>
  <text x="565" y="510" text-anchor="middle" class="component-subtitle">Knowledge Graph</text>
  
  <rect x="680" y="420" width="170" height="120" class="component-box" fill="white" />
  <text x="765" y="450" text-anchor="middle" class="component-title">Analytics Engine</text>
  <text x="765" y="470" text-anchor="middle" class="component-subtitle">Performance Metrics</text>
  <text x="765" y="490" text-anchor="middle" class="component-subtitle">Trend Analysis</text>
  <text x="765" y="510" text-anchor="middle" class="component-subtitle">Reporting</text>

  <!-- UI Layer -->
  <rect x="40" y="580" width="540" height="140" class="layer-box" fill="url(#uiGrad)" />
  <text x="60" y="605" class="layer-title">UI LAYER</text>
  
  <rect x="80" y="620" width="220" height="80" class="component-box" fill="white" />
  <text x="190" y="650" text-anchor="middle" class="component-title">Unified Web UI</text>
  <text x="190" y="670" text-anchor="middle" class="component-subtitle">React/Material UI</text>
  <text x="190" y="690" text-anchor="middle" class="component-subtitle">Order Dashboard &amp; Management</text>
  
  <rect x="340" y="620" width="220" height="80" class="component-box" fill="white" />
  <text x="450" y="650" text-anchor="middle" class="component-title">Chatbot Interface</text>
  <text x="450" y="670" text-anchor="middle" class="component-subtitle">Web-based Chat UI</text>
  <text x="450" y="690" text-anchor="middle" class="component-subtitle">Natural Language Interactions</text>

  <!-- External Integration Layer -->
  <rect x="600" y="580" width="360" height="140" class="layer-box" fill="url(#externalGrad)" />
  <text x="620" y="605" class="layer-title">EXTERNAL MESSAGING INTEGRATION</text>
  
  <rect x="630" y="620" width="140" height="80" class="component-box" fill="white" />
  <text x="700" y="650" text-anchor="middle" class="component-title">Slack</text>
  <text x="700" y="670" text-anchor="middle" class="component-subtitle">Integration</text>
  
  <rect x="800" y="620" width="140" height="80" class="component-box" fill="white" />
  <text x="870" y="650" text-anchor="middle" class="component-title">MS Teams</text>
  <text x="870" y="670" text-anchor="middle" class="component-subtitle">Integration</text>

  <!-- User layer -->
  <rect x="40" y="740" width="920" height="40" class="layer-box" fill="url(#headerGrad)" />
  <text x="500" y="765" text-anchor="middle" class="component-title">USERS: Support Teams, Customer Service, Operations, Management</text>

  <!-- Connections -->
  <!-- Source to Integration Layer -->
  <line x1="140" y1="180" x2="140" y2="260" class="connection-bidirectional" />
  <line x1="300" y1="180" x2="300" y2="260" class="connection-bidirectional" />
  <line x1="460" y1="180" x2="460" y2="260" class="connection-bidirectional" />
  <line x1="620" y1="180" x2="620" y2="260" class="connection-bidirectional" />
  <line x1="780" y1="180" x2="780" y2="260" class="connection-bidirectional" />
  
  <!-- Integration to Core Layer -->
  <line x1="220" y1="340" x2="220" y2="420" class="connection-solid" />
  <line x1="500" y1="340" x2="500" y2="420" class="connection-solid" />
  <line x1="780" y1="340" x2="780" y2="420" class="connection-solid" />
  
  <!-- Core Layer Interconnections -->
  <line x1="250" y1="480" x2="280" y2="480" class="connection-bidirectional" />
  <line x1="450" y1="480" x2="480" y2="480" class="connection-bidirectional" />
  <line x1="650" y1="480" x2="680" y2="480" class="connection-bidirectional" />
  
  <!-- Core to UI Layer -->
  <line x1="165" y1="540" x2="165" y2="620" class="connection-solid" />
  <line x1="365" y1="540" x2="365" y2="620" class="connection-solid" />
  <line x1="565" y1="540" x2="565" y2="620" class="connection-solid" />
  
  <!-- UI to External Messaging -->
  <line x1="560" y1="660" x2="630" y2="660" class="connection-bidirectional" />
  <line x1="770" y1="660" x2="800" y2="660" class="connection-bidirectional" />
  
  <!-- Components to Users -->
  <line x1="190" y1="700" x2="190" y2="740" class="connection-bidirectional" />
  <line x1="450" y1="700" x2="450" y2="740" class="connection-bidirectional" />
  <line x1="700" y1="700" x2="700" y2="740" class="connection-bidirectional" />
  <line x1="870" y1="700" x2="870" y2="740" class="connection-bidirectional" />
  
  <!-- Legend -->
  <rect x="820" y="740" width="10" height="2" class="connection-solid" />
  <text x="870" y="743" class="component-subtitle">Unidirectional Flow</text>
  
  <rect x="820" y="750" width="10" height="2" class="connection-bidirectional" />
  <text x="870" y="753" class="component-subtitle">Bidirectional Flow</text>
  
  <rect x="820" y="760" width="10" height="2" class="connection" />
  <text x="870" y="763" class="component-subtitle">Event Stream</text>
</svg>